<svg xmlns="http://www.w3.org/2000/svg" viewBox="0 0 72 72"><g data-name="Layer 2"><path d="M36 0a36 36 0 1 0 36 36A36 36 0 0 0 36 0Zm16.69 24.48c-.54 5.7-2.89 19.5-4.08 25.88-.5 2.7-1.49 3.6-2.46 3.7-2.09.19-3.68-1.38-5.7-2.71-3.17-2.07-5-3.37-8-5.4-3.55-2.34-1.25-3.63.78-5.73.53-.55 9.74-8.93 9.92-9.69a.71.71 0 0 0-.16-.64.86.86 0 0 0-.75-.07q-.48.11-15.19 10a6.76 6.76 0 0 1-3.9 1.44A25.52 25.52 0 0 1 17.52 40c-2.26-.73-4-1.12-3.89-2.36.08-.65 1-1.31 2.68-2q15.75-6.87 21-9.05c10-4.16 12.08-4.88 13.43-4.9a2.34 2.34 0 0 1 1.4.42 1.43 1.43 0 0 1 .51 1 7.44 7.44 0 0 1 .04 1.37Z" style="fill-rule:evenodd" data-name="Layer 1"/></g></svg>
