<?xml version="1.0" encoding="utf-8"?>
<!-- Generator: Adobe Illustrator 25.3.0, SVG Export Plug-In . SVG Version: 6.00 Build 0)  -->
<svg version="1.1" id="Layer_1" xmlns="http://www.w3.org/2000/svg" xmlns:xlink="http://www.w3.org/1999/xlink" x="0px" y="0px"
	 viewBox="0 0 32 32" style="enable-background:new 0 0 32 32;" xml:space="preserve">
<style type="text/css">
	.st0{fill:#1C1C1C;}
	.st1{opacity:0.6;fill:#AFE100;enable-background:new    ;}
	.st2{opacity:0.6;fill:#0096C8;enable-background:new    ;}
	.st3{fill:#E19600;}
	.st4{fill:#D8CCBD;}
</style>
<path class="st0" d="M0,0h32v32H0V0z"/>
<path class="st1" d="M9.5,6.2h10.8v2h-8.6v6.2h8v2h-8v6.8h8.8v2h-11V6.2z"/>
<path class="st2" d="M10.5,7.7h10.8v2h-8.6v6.2h8v2h-8v6.8h8.8v2h-11V7.7z"/>
<path class="st3" d="M11.5,6.2h10.9v2h-8.7v6.2h8v2h-8.1v6.8h8.9v2h-11V6.2z"/>
<path class="st4" d="M10.5,6.7h10.8v2h-8.6V15h8v2h-8v6.8h8.8v2h-11V6.7z"/>
</svg>
