<svg xmlns="http://www.w3.org/2000/svg" xmlns:xlink="http://www.w3.org/1999/xlink"><defs><style>.cls-2{fill:#191717}</style></defs><symbol id="icon-close" viewBox="0 0 20 20"><path d="M.293 18.291a1 1 0 101.414 1.414L10 11.413l8.292 8.292a1 1 0 101.414-1.414l-8.292-8.292 8.292-8.292A1 1 0 1018.291.293L9.999 8.585 1.707.293A1 1 0 10.293 1.707L8.585 10 .293 18.291z"/></symbol><symbol id="icon-codewars" viewBox="0 0 72.86 72"><g data-name="Layer 2"><path d="M35.35 61.33a2.35 2.35 0 0 1 1.38-.41 2.39 2.39 0 0 1 2 1.19 2.73 2.73 0 0 1 3.8-.1 3 3 0 0 1 3-2.23 3 3 0 0 1 1.1.23v.07a3.33 3.33 0 0 1 3.22-3.25 4 4 0 0 1-.37-2.24 4.07 4.07 0 0 1 2.2-3.14 3.3 3.3 0 0 1-.94-2.41 3.34 3.34 0 0 1 .7-2 3.1 3.1 0 0 1-1.37-3.8 2.78 2.78 0 0 1-2.5-2.83 2 2 0 0 1 0-.43 2.59 2.59 0 0 1-.48 0A2.24 2.24 0 0 1 45 38.31a2 2 0 0 1-3.07-1.22 1.18 1.18 0 0 1-.66.16 1.31 1.31 0 0 1-.55-.13 4.12 4.12 0 0 1-1.1 1.82 1.21 1.21 0 0 1 .59.57 1.25 1.25 0 0 1 0 1.2 2 2 0 0 1 1 3.38 2.21 2.21 0 0 1 1.09 1 2.23 2.23 0 0 1-1 3 2.81 2.81 0 0 1-.6 4.54 2.64 2.64 0 0 1-.68.25 3.09 3.09 0 0 1-1.33 4.17 3 3 0 0 1-1.66.33 3.38 3.38 0 0 1-2 3.29 2 2 0 0 1 .34.64ZM69.61 0H3.25A3.26 3.26 0 0 0 0 3.25v65.5A3.26 3.26 0 0 0 3.25 72h66.36a3.26 3.26 0 0 0 3.25-3.25V3.25A3.26 3.26 0 0 0 69.61 0Zm-3 44.09a3.06 3.06 0 0 1-1.84 1.32 2.74 2.74 0 0 1-2.43 4.5v-.13a2.37 2.37 0 0 1-1.87 2.8 2.45 2.45 0 0 1-1.47-.14 1.89 1.89 0 0 1-.3.85 1.87 1.87 0 0 1-1.3.87 4.32 4.32 0 0 1 .07 1.39A4 4 0 0 1 53 59.09h.11a3.55 3.55 0 0 1 .17 1.16 3.32 3.32 0 0 1-4.85 2.89 3 3 0 0 1-3.35 2.65 3 3 0 0 1-1.8-.88 2.75 2.75 0 0 1-5.12.23 2.38 2.38 0 0 1-3.35-.33 2.42 2.42 0 0 1-.51-1.17 1.83 1.83 0 0 1-.89.19 1.93 1.93 0 0 1-1.88-1.75 4 4 0 0 1-1.92 1.59 4 4 0 0 1-5.21-2.14 3.35 3.35 0 0 1-5.4-.78 3.38 3.38 0 0 1-.38-1.43 3 3 0 0 1-4-3.67 2.74 2.74 0 0 1-3.18-2.22 2.7 2.7 0 0 1 .56-2.16 2.39 2.39 0 0 1-.54-4.12 1.93 1.93 0 0 1-.55-2.53 4.19 4.19 0 0 1-1.5-.73 4 4 0 0 1-.8-5.6 3.55 3.55 0 0 1-1.06-.44 3.35 3.35 0 0 1-1-4.62 3.26 3.26 0 0 1 1.06-1 3 3 0 0 1 1.13-5.33 2.75 2.75 0 0 1 .33-3.9 2.72 2.72 0 0 1 2.12-.62v.12a2.4 2.4 0 0 1 1.86-2.81 2.42 2.42 0 0 1 1.41.15 1.81 1.81 0 0 1 .3-.85 1.94 1.94 0 0 1 1.31-.88 4.2 4.2 0 0 1-.07-1.35 4 4 0 0 1 4.39-3.56 3.22 3.22 0 0 1-.18-1.15 3.36 3.36 0 0 1 4.85-2.9 3 3 0 0 1 3.35-2.64 3 3 0 0 1 1.8.88 2.75 2.75 0 0 1 5.12-.23 2.37 2.37 0 0 1 3.35.33 2.35 2.35 0 0 1 .51 1.16A2 2 0 0 1 42 10.22a4 4 0 0 1 7.13.56 3.42 3.42 0 0 1 .93-.72 3.35 3.35 0 0 1 4.5 1.45 3.45 3.45 0 0 1 .32 1.49 3 3 0 0 1 4 3.69 2.74 2.74 0 0 1 3.17 2.23 2.69 2.69 0 0 1-.51 2.08 2.38 2.38 0 0 1 1.32 3.09 2.32 2.32 0 0 1-.78 1 2 2 0 0 1 .58.68 2 2 0 0 1 0 1.86 4 4 0 0 1 1.46.72 4 4 0 0 1 .75 5.65 3.12 3.12 0 0 1 1.06.45A3.33 3.33 0 0 1 67 39a3.26 3.26 0 0 1-1 1.05 3 3 0 0 1 .69 4ZM34.77 10.18a2.75 2.75 0 0 1-3.77.12 3 3 0 0 1-3 2.22 3 3 0 0 1-1.1-.23 3.34 3.34 0 0 1-3.22 3.18A4.08 4.08 0 0 1 24 17.7a4 4 0 0 1-2.2 3.14 3.38 3.38 0 0 1 .23 4.39A3.12 3.12 0 0 1 23.66 28a3.21 3.21 0 0 1-.22 1 2.79 2.79 0 0 1 2.5 2.85v.42a2.59 2.59 0 0 1 .48 0A2.25 2.25 0 0 1 28.51 34a2 2 0 0 1 3.07 1.21 1.25 1.25 0 0 1 1.16 0 4.09 4.09 0 0 1 .92-1.92 1.15 1.15 0 0 1-.36-.43 1.25 1.25 0 0 1 0-1.19 2 2 0 0 1-1-3.39 2.3 2.3 0 0 1-1.09-1 2.25 2.25 0 0 1 1-3 1.11 1.11 0 0 1 .19-.09l-.18.08a2.89 2.89 0 0 1-.61-.79 2.78 2.78 0 0 1 1.19-3.75 2.92 2.92 0 0 1 .7-.25 3.09 3.09 0 0 1 1.33-4.16 3 3 0 0 1 1.67-.34 3.37 3.37 0 0 1 1.82-3.2l.18-.08a1.9 1.9 0 0 1-.33-.63 2.4 2.4 0 0 1-3.39-.81Zm24.35 24.61a4 4 0 0 1-1.56-3.51 3.3 3.3 0 0 1-2.56-.45 3.36 3.36 0 0 1-1.33-1.62 3.07 3.07 0 0 1-3.19-.08 2.94 2.94 0 0 1-.78-.71 2.77 2.77 0 0 1-3.7.68 3 3 0 0 1-.34-.25 2.44 2.44 0 0 1-.21.43 2.23 2.23 0 0 1-2.58.92 2.11 2.11 0 0 1-.32 1.17 2 2 0 0 1-2.31.84 1.3 1.3 0 0 1-.2.64 1 1 0 0 1-.22.26 4.22 4.22 0 0 1 1 1.72 1.25 1.25 0 0 1 .57-.13 1.27 1.27 0 0 1 1 .59 2 2 0 0 1 2.85-.19 2.05 2.05 0 0 1 .6.93 2.23 2.23 0 0 1 3.6 1.82 1.64 1.64 0 0 1 0 .23v-.21a2.57 2.57 0 0 1 1-.16 2.78 2.78 0 0 1 2.72 2.83 2.85 2.85 0 0 1-.11.72 3.1 3.1 0 0 1 2.5 4.8 3.36 3.36 0 0 1 2 3.14 3.49 3.49 0 0 1-.23 1.1l.31.06A2.28 2.28 0 0 1 58 49a2.36 2.36 0 0 1 2-1.14 2.78 2.78 0 0 1 .34-2.16 2.74 2.74 0 0 1 1.54-1.13A3 3 0 0 1 62.3 40a3.33 3.33 0 0 1-1.06-4.41 4.06 4.06 0 0 1-2.11-.83Zm.16-9.12a1.85 1.85 0 0 1 .25-.32 2.38 2.38 0 0 1-.92-3.35 2.73 2.73 0 0 1-1.68-1.38 2.78 2.78 0 0 1-.23-1.9 3 3 0 0 1-3.39-1.55 3.19 3.19 0 0 1-.31-1.1 3.34 3.34 0 0 1-4.33-1.3 4.05 4.05 0 0 1-5.59 1 3.37 3.37 0 0 1-1.68 2 3.31 3.31 0 0 1-2.07.34 3.1 3.1 0 0 1-1.68 2.7 3.16 3.16 0 0 1-1 .32 2.78 2.78 0 0 1-1.3 3.55l-.39.17a1.84 1.84 0 0 1 .26.4 2.22 2.22 0 0 1-.51 2.69 2 2 0 0 1 .85.87 2 2 0 0 1-.45 2.41 1.23 1.23 0 0 1 .46.5 1.32 1.32 0 0 1 .12.31 4.14 4.14 0 0 1 2-.05 1.33 1.33 0 0 1 .17-.43 1.29 1.29 0 0 1 1-.59 2 2 0 0 1 1.31-2.54 2 2 0 0 1 1.11 0 2.18 2.18 0 0 1 .34-1.45 2.22 2.22 0 0 1 3.08-.69 2.71 2.71 0 0 1 .39-.93 2.78 2.78 0 0 1 3.91-.96 3.1 3.1 0 0 1 .55.47 3.09 3.09 0 0 1 4.27-.95A3.07 3.07 0 0 1 55 25.2a3.33 3.33 0 0 1 3.68-.05 4 4 0 0 1 .64.52ZM38 40.64a1.21 1.21 0 0 1-.15-.72 4.38 4.38 0 0 1-1 .12 3.93 3.93 0 0 1-1-.11 1.25 1.25 0 0 1-.18.9 1.32 1.32 0 0 1-1 .59 2 2 0 0 1-1.33 2.52 2.08 2.08 0 0 1-1.08 0 2.18 2.18 0 0 1-.34 1.45 2.24 2.24 0 0 1-3.09.68 2.63 2.63 0 0 1-.39.93 2.77 2.77 0 0 1-3.83.86 3.12 3.12 0 0 1-.56-.46 3.11 3.11 0 0 1-5.41-.33 3.34 3.34 0 0 1-3.68 0 3.17 3.17 0 0 1-.64-.52A1.54 1.54 0 0 1 14 47a2.34 2.34 0 0 1 1 1 2.38 2.38 0 0 1-.1 2.34 2.7 2.7 0 0 1 1.68 1.38 2.75 2.75 0 0 1 .23 1.89 3 3 0 0 1 3.4 1.57 2.85 2.85 0 0 1 .3 1.08 3.34 3.34 0 0 1 4.35 1.3 4 4 0 0 1 5.59-1 3.36 3.36 0 0 1 3.74-2.31 3.09 3.09 0 0 1 1.68-2.71 3 3 0 0 1 1-.31 2.78 2.78 0 0 1 1.29-3.55 2 2 0 0 1 .4-.16 2.07 2.07 0 0 1-.27-.41 2.23 2.23 0 0 1 .51-2.69 1.91 1.91 0 0 1-.85-.86 2 2 0 0 1 .45-2.43 1.21 1.21 0 0 1-.45-.5Zm-5-3.27a1.28 1.28 0 0 1-.76.22 1.26 1.26 0 0 1-1-.58 2 2 0 0 1-3.44-.73 2.25 2.25 0 0 1-3.6-1.82 2.82 2.82 0 0 1-1 .15 2.77 2.77 0 0 1-2.71-2.84 2.53 2.53 0 0 1 .11-.73 3.1 3.1 0 0 1-3-3.17 3.19 3.19 0 0 1 .4-1.64 3.36 3.36 0 0 1-2-3.14 3.14 3.14 0 0 1 .2-1.09 1.7 1.7 0 0 1-.31-.06 2.31 2.31 0 0 1-.37 1.4 2.39 2.39 0 0 1-2.06 1.1 2.75 2.75 0 0 1-.35 2.15 2.71 2.71 0 0 1-1.51 1.15 3 3 0 0 1 .4 3.72 3.13 3.13 0 0 1-.77.81 3.33 3.33 0 0 1 1.06 4.4 4.09 4.09 0 0 1 2.1.84A4 4 0 0 1 15.94 41a3.37 3.37 0 0 1 3.88 2.06 3.11 3.11 0 0 1 4 .8 2.77 2.77 0 0 1 3.72-.68 1.7 1.7 0 0 1 .34.26 2.18 2.18 0 0 1 .22-.43 2.22 2.22 0 0 1 2.58-.93 2 2 0 0 1 .32-1.14 2 2 0 0 1 2.31-.83A1.26 1.26 0 0 1 34 39a4.27 4.27 0 0 1-1.09-1.59Z" data-name="Layer 1"/></g></symbol><symbol id="icon-github" viewBox="0 0 73.82 72"><g id="Layer_2" data-name="Layer 2"><g id="Layer_1-2" data-name="Layer 1"><path d="M36.91 0a36.92 36.92 0 0 0-11.67 71.94c1.85.34 2.52-.8 2.52-1.78s0-3.79-.05-6.87c-10.26 2.23-12.43-4.36-12.43-4.36-1.68-4.26-4.1-5.4-4.1-5.4-3.35-2.29.25-2.24.25-2.24 3.71.26 5.66 3.8 5.66 3.8 3.29 5.65 8.64 4 10.74 3.07a7.83 7.83 0 0 1 2.35-4.93C22 52.29 13.36 49.13 13.36 35a14.26 14.26 0 0 1 3.8-9.9 13.32 13.32 0 0 1 .36-9.77s3.1-1 10.15 3.78a35.08 35.08 0 0 1 18.49 0c7-4.77 10.14-3.78 10.14-3.78a13.26 13.26 0 0 1 .36 9.77 14.22 14.22 0 0 1 3.8 9.9c0 14.18-8.64 17.3-16.85 18.22 1.32 1.14 2.5 3.39 2.5 6.83v10.13c0 1 .66 2.13 2.53 1.77A36.92 36.92 0 0 0 36.91 0Z" style="fill-rule:evenodd;"/><path class="cls-2" d="M14 53a.46.46 0 0 1-.63.11c-.27-.12-.42-.37-.33-.56s.36-.24.63-.11.42.37.33.56ZM15.48 54.66c-.18.17-.52.09-.76-.17a.57.57 0 0 1-.11-.76c.19-.17.52-.09.76.17s.29.6.11.76ZM16.93 56.79c-.23.16-.6 0-.82-.32s-.23-.72 0-.88.59 0 .83.31.22.73 0 .89ZM18.92 58.84c-.2.23-.63.17-.94-.14s-.42-.72-.21-.94.63-.16.95.14.42.72.2.94ZM21.68 60c-.09.29-.51.42-.93.29s-.69-.46-.6-.75.5-.43.92-.3.69.46.61.76ZM24.7 60.26c0 .3-.35.55-.79.56s-.8-.24-.8-.54.35-.55.79-.56.8.24.8.54ZM27.51 59.78c0 .3-.26.6-.69.68s-.83-.1-.88-.4.26-.61.68-.69.83.11.89.41Z"/></g></g></symbol><symbol id="icon-telegram" viewBox="0 0 72 72"><g data-name="Layer 2"><path d="M36 0a36 36 0 1 0 36 36A36 36 0 0 0 36 0Zm16.69 24.48c-.54 5.7-2.89 19.5-4.08 25.88-.5 2.7-1.49 3.6-2.46 3.7-2.09.19-3.68-1.38-5.7-2.71-3.17-2.07-5-3.37-8-5.4-3.55-2.34-1.25-3.63.78-5.73.53-.55 9.74-8.93 9.92-9.69a.71.71 0 0 0-.16-.64.86.86 0 0 0-.75-.07q-.48.11-15.19 10a6.76 6.76 0 0 1-3.9 1.44A25.52 25.52 0 0 1 17.52 40c-2.26-.73-4-1.12-3.89-2.36.08-.65 1-1.31 2.68-2q15.75-6.87 21-9.05c10-4.16 12.08-4.88 13.43-4.9a2.34 2.34 0 0 1 1.4.42 1.43 1.43 0 0 1 .51 1 7.44 7.44 0 0 1 .04 1.37Z" style="fill-rule:evenodd" data-name="Layer 1"/></g></symbol></svg>