<svg xmlns="http://www.w3.org/2000/svg" viewBox="0 0 73.82 72"><defs><style>.cls-2{fill:#191717}</style></defs><g id="Layer_2" data-name="Layer 2"><g id="Layer_1-2" data-name="Layer 1"><path d="M36.91 0a36.92 36.92 0 0 0-11.67 71.94c1.85.34 2.52-.8 2.52-1.78s0-3.79-.05-6.87c-10.26 2.23-12.43-4.36-12.43-4.36-1.68-4.26-4.1-5.4-4.1-5.4-3.35-2.29.25-2.24.25-2.24 3.71.26 5.66 3.8 5.66 3.8 3.29 5.65 8.64 4 10.74 3.07a7.83 7.83 0 0 1 2.35-4.93C22 52.29 13.36 49.13 13.36 35a14.26 14.26 0 0 1 3.8-9.9 13.32 13.32 0 0 1 .36-9.77s3.1-1 10.15 3.78a35.08 35.08 0 0 1 18.49 0c7-4.77 10.14-3.78 10.14-3.78a13.26 13.26 0 0 1 .36 9.77 14.22 14.22 0 0 1 3.8 9.9c0 14.18-8.64 17.3-16.85 18.22 1.32 1.14 2.5 3.39 2.5 6.83v10.13c0 1 .66 2.13 2.53 1.77A36.92 36.92 0 0 0 36.91 0Z" style="fill-rule:evenodd;fill:#191717"/><path class="cls-2" d="M14 53a.46.46 0 0 1-.63.11c-.27-.12-.42-.37-.33-.56s.36-.24.63-.11.42.37.33.56ZM15.48 54.66c-.18.17-.52.09-.76-.17a.57.57 0 0 1-.11-.76c.19-.17.52-.09.76.17s.29.6.11.76ZM16.93 56.79c-.23.16-.6 0-.82-.32s-.23-.72 0-.88.59 0 .83.31.22.73 0 .89ZM18.92 58.84c-.2.23-.63.17-.94-.14s-.42-.72-.21-.94.63-.16.95.14.42.72.2.94ZM21.68 60c-.09.29-.51.42-.93.29s-.69-.46-.6-.75.5-.43.92-.3.69.46.61.76ZM24.7 60.26c0 .3-.35.55-.79.56s-.8-.24-.8-.54.35-.55.79-.56.8.24.8.54ZM27.51 59.78c0 .3-.26.6-.69.68s-.83-.1-.88-.4.26-.61.68-.69.83.11.89.41Z"/></g></g></svg>